<?xml version="1.0" encoding="utf-8"?>
<!-- Svg Vector Icons : http://www.onlinewebfonts.com/icon -->
<!DOCTYPE svg PUBLIC "-//W3C//DTD SVG 1.1//EN" "http://www.w3.org/Graphics/SVG/1.1/DTD/svg11.dtd">
<svg version="1.1" xmlns="http://www.w3.org/2000/svg" xmlns:xlink="http://www.w3.org/1999/xlink" x="0px" y="0px" viewBox="0 0 1000 1000" enable-background="new 0 0 1000 1000" xml:space="preserve">
<metadata> Svg Vector Icons : http://www.onlinewebfonts.com/icon </metadata>
<g><path fill="rgb(255,255,255)" d="M670.5,670.5c-150.9,150.9-396.4,150.9-547.3,0c-150.9-150.9-150.9-396.4,0-547.3c150.9-150.9,396.4-150.9,547.3,0C821.4,274.1,821.4,519.6,670.5,670.5L670.5,670.5z M207.6,207.5c-104.4,104.4-104.4,274.2,0,378.6c104.3,104.4,274.2,104.3,378.6,0c104.3-104.4,104.3-274.2,0-378.5C481.8,103.2,311.9,103.2,207.6,207.5L207.6,207.5z M968.5,851.6c28.7,28.7,28.7,75.2,0,103.8l-13,13c-28.7,28.7-75.1,28.7-103.9,0l-266-266.1c-28.7-28.7-28.7-75.2,0-103.8l13-13c28.7-28.7,75.2-28.7,103.9,0L968.5,851.6L968.5,851.6z"/></g>
</svg>