<svg xmlns="http://www.w3.org/2000/svg" xmlns:xlink="http://www.w3.org/1999/xlink" version="1.1" id="Layer_1" x="0px" y="0px" viewBox="0 0 24 24" style="enable-background:new 0 0 329.942 329.942;" xml:space="preserve">
<path fill="rgb(255,255,255)" d="M22.1 23L20.4 5.3c0-.5-.5-.8-.9-.8h-3C16.5 2 14.5 0 12 0S7.4 2 7.4 4.5h-3c-.5 0-.9.4-.9.8L1.7 23c-.1.6.4 1 .9 1h18.6c.6 0 1-.5.9-1zM11.9 1.9c1.4 0 2.6 1.2 2.6 2.6H9.3c0-1.4 1.2-2.6 2.6-2.6zM3.7 22.1L5.3 6.4h2.2v1.9c0 .5.4.9.9.9s.9-.4.9-.9V6.4h5.3v1.9c0 .5.4.9.9.9s.9-.4.9-.9V6.4h2.2l1.6 15.8H3.7z"/>
<g>
</g>
<g>
</g>
<g>
</g>
<g>
</g>
<g>
</g>
<g>
</g>
<g>
</g>
<g>
</g>
<g>
</g>
<g>
</g>
<g>
</g>
<g>
</g>
<g>
</g>
<g>
</g>
<g>
</g>
</svg>